<?xml version="1.0" standalone="no"?>
<!DOCTYPE svg PUBLIC "-//W3C//DTD SVG 20010904//EN"
 "http://www.w3.org/TR/2001/REC-SVG-20010904/DTD/svg10.dtd">
<svg version="1.0" xmlns="http://www.w3.org/2000/svg"
 width="500.000000pt" height="500.000000pt" viewBox="0 0 500.000000 500.000000"
 preserveAspectRatio="xMidYMid meet">
<metadata>
Created by potrace 1.16, written by Peter Selinger 2001-2019
</metadata>
<g transform="translate(0.000000,500.000000) scale(0.100000,-0.100000)"
fill="#000000" stroke="none">
<path d="M0 2500 l0 -2500 2500 0 2500 0 0 2500 0 2500 -2500 0 -2500 0 0
-2500z m2696 1219 c405 -73 735 -339 887 -715 64 -159 78 -235 84 -458 8 -293
-20 -436 -123 -641 -63 -123 -116 -195 -220 -297 -178 -175 -345 -265 -593
-318 -93 -20 -123 -22 -270 -17 -174 6 -243 19 -383 71 -83 31 -195 91 -248
133 -205 160 -308 284 -394 477 -86 192 -112 354 -103 626 8 217 38 344 122
510 60 121 104 180 214 291 88 87 215 189 236 189 3 0 24 12 46 26 62 39 204
91 310 113 108 22 337 28 435 10z"/>
<path d="M2335 3174 c-125 -52 -144 -56 -178 -39 -42 21 -50 19 -45 -10 5 -21
2 -25 -21 -25 -35 -1 -101 -32 -128 -61 -44 -48 -73 -171 -42 -181 8 -3 6 -15
-4 -40 -25 -59 -74 -74 -121 -37 l-26 20 0 -31 c0 -52 25 -86 84 -115 120 -59
265 -25 352 82 l42 51 6 -30 c3 -17 6 -46 6 -65 0 -29 -3 -33 -19 -28 -13 4
-27 -1 -38 -12 -10 -10 -29 -24 -43 -30 -14 -7 -32 -17 -40 -21 -46 -26 -84
-42 -98 -42 -9 0 -41 -10 -70 -22 l-54 -22 -19 24 c-10 14 -35 49 -55 78 -21
31 -40 50 -45 45 -17 -17 -29 -117 -20 -178 7 -48 6 -63 -6 -77 -21 -24 -57
-8 -142 63 l-71 60 0 -51 c0 -60 28 -145 68 -206 27 -42 28 -47 18 -103 -11
-71 1 -128 27 -123 13 2 17 -5 17 -30 0 -47 18 -106 47 -157 l25 -43 45 51
c50 57 200 143 207 119 41 -139 55 -155 160 -182 l56 -15 135 70 c74 38 144
69 155 69 23 0 133 -53 222 -106 54 -33 59 -34 105 -24 26 6 66 19 89 29 36
16 43 25 63 82 13 35 25 70 27 77 2 9 27 1 81 -27 80 -40 112 -65 149 -117
l21 -29 22 35 c25 41 39 87 48 153 5 39 9 47 23 42 15 -5 19 2 25 36 4 22 4
65 0 94 -5 47 -3 59 19 93 44 70 78 203 67 264 0 4 -19 -11 -40 -35 -22 -23
-64 -57 -95 -76 -53 -32 -58 -33 -75 -17 -16 14 -17 24 -9 74 11 64 5 130 -15
168 l-13 25 -47 -71 c-27 -39 -54 -73 -62 -76 -7 -3 -35 4 -61 15 -25 12 -59
21 -75 21 -16 0 -29 4 -29 9 0 5 -12 12 -27 16 -14 3 -38 15 -51 26 -14 10
-29 19 -33 19 -5 0 -18 9 -30 21 -13 13 -27 18 -41 13 -19 -6 -20 -3 -14 55 3
34 9 88 12 121 4 41 2 60 -5 60 -6 0 -18 18 -27 40 -17 41 -96 120 -121 120
-9 0 -12 7 -7 25 9 35 -11 78 -45 98 -44 26 -142 22 -216 -9z m198 -169 c30
-47 87 -92 150 -119 37 -15 38 -17 33 -58 -3 -24 -6 -90 -7 -148 -1 -90 -5
-112 -26 -155 -31 -61 -123 -215 -129 -215 -2 0 -4 79 -4 175 0 170 1 175 20
175 48 0 102 45 114 92 l6 27 -67 -25 c-84 -32 -140 -32 -231 -2 l-72 24 0
-24 c0 -33 49 -79 93 -87 l37 -7 0 -182 0 -181 -35 55 c-19 30 -54 91 -77 135
l-42 80 -5 149 c-4 81 -4 151 -1 155 3 4 25 15 49 26 48 21 135 102 146 135 9
29 16 25 48 -25z m-554 -554 c15 -60 47 -104 109 -153 53 -42 62 -65 50 -123
-11 -50 -31 -72 -78 -86 -32 -10 -48 -8 -114 15 -83 29 -179 36 -229 17 -43
-17 -47 -14 -47 29 0 33 4 42 28 54 51 26 67 53 72 125 l5 66 40 6 c55 7 84
25 91 55 5 21 30 41 55 43 3 1 11 -21 18 -48z m1091 39 c5 0 16 -15 25 -34 17
-35 48 -53 100 -58 29 -3 30 -4 35 -69 5 -72 21 -99 72 -125 24 -12 28 -21 28
-55 0 -35 -3 -40 -17 -34 -71 27 -168 22 -273 -14 -72 -25 -82 -26 -120 -6
-38 20 -60 63 -60 118 0 42 3 47 54 85 61 47 89 87 108 155 8 33 16 46 26 42
7 -3 18 -5 22 -5z m-848 -271 c11 -6 63 -19 116 -30 63 -13 102 -26 114 -39
20 -22 37 -87 38 -146 0 -39 -2 -41 -42 -54 -24 -7 -49 -15 -55 -16 -7 -1 -20
-9 -29 -18 -8 -9 -21 -16 -28 -16 -8 0 -19 -6 -25 -13 -6 -8 -25 -14 -42 -15
-17 0 -34 -4 -38 -8 -3 -4 7 -4 22 -2 19 4 25 2 18 -5 -13 -13 -101 -22 -101
-10 0 4 -13 8 -30 9 -47 2 -78 28 -87 76 -6 25 -5 46 0 49 5 3 2 9 -7 12 -19
7 -22 41 -4 35 7 -3 22 -33 35 -68 15 -45 29 -67 47 -77 14 -8 26 -11 26 -9 0
3 11 1 24 -4 18 -7 31 -3 60 16 20 14 41 22 48 18 6 -4 8 -3 5 3 -5 8 69 51
152 87 23 10 23 11 4 14 -31 5 -142 -36 -192 -70 -34 -23 -51 -28 -75 -24 -43
9 -49 15 -67 66 -9 25 -19 52 -23 61 -5 10 1 20 19 29 34 18 63 66 71 118 7
44 13 49 46 31z m602 -31 c8 -52 37 -100 71 -118 18 -9 24 -19 19 -29 -4 -9
-14 -38 -24 -65 -14 -41 -22 -52 -51 -61 -31 -11 -38 -10 -78 18 -74 50 -236
99 -214 65 4 -7 8 -16 8 -20 0 -3 3 -10 7 -14 4 -3 6 3 3 15 l-4 21 42 -21
c23 -12 45 -26 48 -31 3 -5 9 -9 13 -9 20 3 26 0 21 -9 -3 -6 1 -7 9 -4 9 3
16 1 16 -5 0 -6 5 -11 11 -11 6 0 23 -8 37 -19 28 -19 92 -33 92 -20 0 4 13
12 30 17 20 7 31 20 36 39 3 15 13 34 22 41 9 7 11 12 4 12 -9 0 -9 6 0 25 6
14 16 25 21 25 12 0 0 -64 -13 -68 -6 -2 -8 -8 -4 -13 3 -5 0 -25 -6 -45 -9
-28 -16 -35 -31 -31 -11 3 -17 1 -14 -3 6 -9 -63 -27 -120 -32 -5 0 -45 20
-88 46 -43 25 -82 46 -88 46 -6 0 -7 5 -3 12 4 6 3 8 -3 5 -5 -3 -26 -1 -46 5
-33 10 -37 15 -37 45 0 24 4 32 13 27 9 -5 9 -4 1 5 -15 16 3 105 25 125 10 9
54 23 98 31 45 9 99 22 120 30 21 7 41 14 44 14 4 1 9 -18 13 -41z m-885 -114
c23 -9 41 -19 41 -23 0 -4 -24 -18 -52 -32 -50 -23 -151 -97 -173 -127 -9 -11
-13 -9 -23 13 -16 35 -38 163 -29 171 26 26 169 25 236 -2z m1347 9 c8 -3 14
-18 14 -35 0 -34 -28 -149 -39 -160 -3 -4 -24 11 -46 34 -22 22 -75 61 -118
86 l-79 46 27 13 c55 29 185 38 241 16z"/>
<path d="M2452 2970 c-24 -27 -57 -58 -73 -67 -28 -17 -30 -21 -27 -73 3 -53
4 -55 39 -67 20 -6 53 -15 73 -18 l36 -7 0 141 c0 77 -1 141 -2 141 -2 -1 -22
-23 -46 -50z"/>
<path d="M2360 2570 c0 -85 3 -97 31 -146 16 -29 34 -56 40 -59 5 -4 9 49 9
133 0 137 0 140 -22 145 -13 2 -31 8 -40 12 -16 6 -18 -1 -18 -85z"/>
<path d="M1974 2298 c-15 -18 -38 -57 -52 -87 -24 -52 -24 -55 -7 -68 28 -19
56 -17 49 5 -4 13 -2 12 7 -3 17 -27 30 -35 59 -35 37 0 70 27 70 56 0 14 4
22 10 19 6 -4 10 8 10 29 0 20 -4 36 -9 36 -4 0 -29 18 -54 40 -25 22 -47 40
-50 40 -3 0 -18 -15 -33 -32z"/>
<path d="M2933 2281 c-39 -35 -53 -55 -53 -75 0 -18 4 -25 12 -20 8 5 9 2 5
-10 -4 -11 2 -26 18 -42 40 -40 107 -28 118 21 4 18 5 18 6 -2 1 -26 18 -29
46 -10 17 13 17 16 -9 73 -24 53 -71 115 -85 114 -3 -1 -30 -22 -58 -49z"/>
</g>
</svg>
